<svg xmlns="http://www.w3.org/2000/svg" viewBox="0 0 96 96">
  <rect width="96" height="96" rx="28" fill="#E6F5EA"/>
  <path d="M14 58a34 34 0 0 1 68 0H14Z" fill="#4FAE68"/>
  <path d="M20 58a28 28 0 0 1 56 0H20Z" fill="#F3D889"/>
  <path d="M25 58a23 23 0 0 1 46 0H25Z" fill="#F16C72"/>
  <path d="M27 51c1-5 3-9 6-12m30 0c3 3 5 7 6 12" fill="none" stroke="#2F8651" stroke-linecap="round" stroke-width="3"/>
  <circle cx="39" cy="48" r="2.5" fill="#493438"/>
  <circle cx="57" cy="48" r="2.5" fill="#493438"/>
  <path d="M42 55c3 3 7 3 10 0" fill="none" stroke="#A93F4F" stroke-linecap="round" stroke-width="2.5"/>
  <ellipse cx="33" cy="57" rx="2" ry="3.5" fill="#563442"/>
  <ellipse cx="64" cy="57" rx="2" ry="3.5" fill="#563442"/>
</svg>
